<svg xmlns="http://www.w3.org/2000/svg" xmlns:xlink="http://www.w3.org/1999/xlink" viewBox="0,0,256,256" width="48px" height="48px" fill-rule="nonzero"><defs><linearGradient x1="4.021" y1="4.021" x2="41.17" y2="41.17" gradientUnits="userSpaceOnUse" id="color-1"><stop offset="0" stop-color="#007098"></stop><stop offset="1" stop-color="#0a85d9"></stop></linearGradient></defs><g fill="none" fill-rule="nonzero" stroke="none" stroke-width="1" stroke-linecap="butt" stroke-linejoin="miter" stroke-miterlimit="10" stroke-dasharray="" stroke-dashoffset="0" font-family="none" font-weight="none" font-size="none" text-anchor="none" style="mix-blend-mode: normal"><g transform="scale(5.33333,5.33333)"><circle cx="24" cy="24" r="20" fill="url(#color-1)"></circle><path d="M13.1,34c-1.1,0 -2.1,-1 -2.1,-2.1v-15.8c0,-1.2 1,-2.1 2.1,-2.1h21.7c1.2,0 2.1,1 2.1,2.1v15.8c0,1.2 -1,2.1 -2.1,2.1z" fill="#000000" opacity="0.05"></path><path d="M13.1,33.5c-0.9,0 -1.6,-0.7 -1.6,-1.6v-15.8c0,-0.9 0.7,-1.6 1.6,-1.6h21.7c0.9,0 1.6,0.7 1.6,1.6v15.8c0,0.9 -0.7,1.6 -1.6,1.6z" fill="#000000" opacity="0.07"></path><path d="M15.6,25.1l20.4,-8v14.8c0,0.6 -0.5,1.1 -1.1,1.1h-19.3z" fill="#ccdcff"></path><path d="M12,17.1v14.8c0,0.6 0.5,1.1 1.1,1.1h21.5c0.3,0 0.5,-0.1 0.7,-0.3z" fill="#e6eeff"></path><path d="M36,17.1l-15.1,5.9l-8.9,-5.9v1.2l10.2,6.8c0.5,0.4 1.2,0.6 1.8,0.6c0.7,0 1.3,-0.2 1.8,-0.6l10.2,-6.8z" fill="#000000" opacity="0.05"></path><path d="M36,17.1l-15.1,5.9l-8.9,-5.9v0.6l10.4,7c0.5,0.3 1,0.5 1.6,0.5c0.6,0 1.1,-0.2 1.6,-0.5l10.4,-7z" fill="#000000" opacity="0.07"></path><path d="M13.1,15h21.7c0.6,0 1.1,0.5 1.1,1.1v1l-10.7,7.2c-0.8,0.5 -1.8,0.5 -2.6,0l-10.6,-7.2v-1c0,-0.6 0.5,-1.1 1.1,-1.1z" fill="#ffffff"></path></g></g></svg>